<svg width="24" height="25" viewBox="0 0 24 25" fill="none" xmlns="http://www.w3.org/2000/svg">
<path fill-rule="evenodd" clip-rule="evenodd" d="M13.47 5.53666C13.6106 5.39621 13.8012 5.31732 14 5.31732C14.1988 5.31732 14.3894 5.39621 14.53 5.53666L20.53 11.5367C20.6705 11.6773 20.7493 11.8679 20.7493 12.0667C20.7493 12.2654 20.6705 12.456 20.53 12.5967L14.53 18.5967C14.4613 18.6703 14.3785 18.7295 14.2865 18.7704C14.1945 18.8114 14.0952 18.8335 13.9945 18.8353C13.8938 18.837 13.7938 18.8185 13.7004 18.7808C13.607 18.7431 13.5222 18.6869 13.451 18.6157C13.3797 18.5445 13.3236 18.4596 13.2859 18.3663C13.2482 18.2729 13.2296 18.1728 13.2314 18.0721C13.2332 17.9714 13.2552 17.8721 13.2962 17.7801C13.3372 17.6881 13.3963 17.6053 13.47 17.5367L18.19 12.8167H4C3.80109 12.8167 3.61032 12.7376 3.46967 12.597C3.32902 12.4563 3.25 12.2656 3.25 12.0667C3.25 11.8677 3.32902 11.677 3.46967 11.5363C3.61032 11.3957 3.80109 11.3167 4 11.3167H18.19L13.47 6.59666C13.3295 6.45604 13.2507 6.26541 13.2507 6.06666C13.2507 5.86791 13.3295 5.67729 13.47 5.53666Z" fill="#534867"/>
</svg>
