<svg width="24" height="25" viewBox="0 0 24 25" fill="none" xmlns="http://www.w3.org/2000/svg">
<path fill-rule="evenodd" clip-rule="evenodd" d="M10.53 5.53666C10.6705 5.67729 10.7494 5.86791 10.7494 6.06666C10.7494 6.26541 10.6705 6.45604 10.53 6.59666L5.81001 11.3167H20C20.1989 11.3167 20.3897 11.3957 20.5303 11.5363C20.671 11.677 20.75 11.8677 20.75 12.0667C20.75 12.2656 20.671 12.4563 20.5303 12.597C20.3897 12.7376 20.1989 12.8167 20 12.8167H5.81001L10.53 17.5367C10.6037 17.6053 10.6628 17.6881 10.7038 17.7801C10.7448 17.8721 10.7668 17.9714 10.7686 18.0721C10.7704 18.1728 10.7519 18.2729 10.7141 18.3663C10.6764 18.4596 10.6203 18.5445 10.549 18.6157C10.4778 18.6869 10.393 18.7431 10.2996 18.7808C10.2062 18.8185 10.1062 18.837 10.0055 18.8353C9.90479 18.8335 9.80547 18.8114 9.71347 18.7704C9.62147 18.7295 9.53867 18.6703 9.47001 18.5967L3.47001 12.5967C3.32956 12.456 3.25067 12.2654 3.25067 12.0667C3.25067 11.8679 3.32956 11.6773 3.47001 11.5367L9.47001 5.53666C9.61064 5.39621 9.80126 5.31732 10 5.31732C10.1988 5.31732 10.3894 5.39621 10.53 5.53666Z" fill="#534867"/>
</svg>
