<svg width="13" height="23" viewBox="0 0 13 23" fill="none" xmlns="http://www.w3.org/2000/svg">
<path d="M6.49999 20.125C6.09555 20.125 5.77777 19.8088 5.77777 19.4062V6.46875C5.77777 6.06625 6.09555 5.75 6.49999 5.75C6.90444 5.75 7.22222 6.06625 7.22222 6.46875V19.4062C7.22222 19.8088 6.90444 20.125 6.49999 20.125Z" fill="#B5A1DA"/>
<path d="M11.5555 10.7815C11.4608 10.7826 11.3669 10.764 11.2798 10.7269C11.1928 10.6898 11.1145 10.6349 11.05 10.5658L6.49999 6.03771L1.94999 10.5658C1.6611 10.8533 1.21332 10.8533 0.92443 10.5658C0.635541 10.2783 0.635541 9.83271 0.92443 9.54521L5.97999 4.51396C6.26887 4.22646 6.71665 4.22646 7.00554 4.51396L12.0611 9.54521C12.35 9.83271 12.35 10.2783 12.0611 10.5658C11.9167 10.7096 11.7289 10.7815 11.5555 10.7815Z" fill="#B5A1DA"/>
</svg>
