<svg width="1220" height="797" viewBox="0 0 1220 797" fill="none" xmlns="http://www.w3.org/2000/svg">
<g filter="url(#filter0_f_38_4)">
<path fill-rule="evenodd" clip-rule="evenodd" d="M888.032 458.015C944.818 468.441 1001.43 472.564 1053.79 496.893C1109.64 522.844 1161.41 556.133 1200.93 603.393C1245.14 656.269 1295.96 715.22 1293.94 784.127C1291.93 852.958 1230.36 902.694 1190.53 958.854C1154.18 1010.11 1121.22 1063.12 1070.14 1099.69C1015.75 1138.62 954.606 1181.68 888.032 1175.38C821.89 1169.12 780.825 1102.71 724.786 1067.01C671.58 1033.11 605.194 1019.57 565.941 970.173C524.306 917.775 500.702 851.061 500.011 784.127C499.317 716.9 531.3 655.612 562.078 595.849C594.094 533.679 618.602 456.045 682.99 428.818C747.682 401.462 818.953 445.333 888.032 458.015Z" fill="#604F93" fill-opacity="0.4"/>
</g>
<defs>
<filter id="filter0_f_38_4" x="0" y="-80" width="1794" height="1756" filterUnits="userSpaceOnUse" color-interpolation-filters="sRGB">
<feFlood flood-opacity="0" result="BackgroundImageFix"/>
<feBlend mode="normal" in="SourceGraphic" in2="BackgroundImageFix" result="shape"/>
<feGaussianBlur stdDeviation="250" result="effect1_foregroundBlur_38_4"/>
</filter>
</defs>
</svg>
