<svg width="65" height="65" viewBox="0 0 65 65" fill="none" xmlns="http://www.w3.org/2000/svg">
<path d="M21.5283 6.10742H43.9282C52.4616 6.10742 59.3949 13.0408 59.3949 21.5741V43.9741C59.3949 48.0761 57.7654 52.0101 54.8648 54.9107C51.9643 57.8112 48.0303 59.4408 43.9282 59.4408H21.5283C12.9949 59.4408 6.06158 52.5074 6.06158 43.9741V21.5741C6.06158 17.4721 7.6911 13.5381 10.5917 10.6375C13.4922 7.73694 17.4262 6.10742 21.5283 6.10742ZM20.9949 11.4408C18.4488 11.4408 16.007 12.4522 14.2067 14.2525C12.4063 16.0529 11.3949 18.4947 11.3949 21.0408V44.5074C11.3949 49.8141 15.6883 54.1074 20.9949 54.1074H44.4616C47.0077 54.1074 49.4495 53.096 51.2498 51.2956C53.0502 49.4953 54.0616 47.0535 54.0616 44.5074V21.0408C54.0616 15.7341 49.7682 11.4408 44.4616 11.4408H20.9949ZM46.7282 15.4408C47.6123 15.4408 48.4602 15.7919 49.0853 16.4171C49.7104 17.0422 50.0616 17.89 50.0616 18.7741C50.0616 19.6581 49.7104 20.506 49.0853 21.1311C48.4602 21.7562 47.6123 22.1074 46.7282 22.1074C45.8442 22.1074 44.9963 21.7562 44.3712 21.1311C43.7461 20.506 43.3949 19.6581 43.3949 18.7741C43.3949 17.89 43.7461 17.0422 44.3712 16.4171C44.9963 15.7919 45.8442 15.4408 46.7282 15.4408ZM32.7282 19.4408C36.2645 19.4408 39.6559 20.8455 42.1563 23.346C44.6568 25.8465 46.0616 29.2379 46.0616 32.7741C46.0616 36.3103 44.6568 39.7017 42.1563 42.2022C39.6559 44.7027 36.2645 46.1074 32.7282 46.1074C29.192 46.1074 25.8006 44.7027 23.3002 42.2022C20.7997 39.7017 19.3949 36.3103 19.3949 32.7741C19.3949 29.2379 20.7997 25.8465 23.3002 23.346C25.8006 20.8455 29.192 19.4408 32.7282 19.4408ZM32.7282 24.7741C30.6065 24.7741 28.5717 25.6169 27.0714 27.1172C25.5711 28.6175 24.7283 30.6524 24.7283 32.7741C24.7283 34.8958 25.5711 36.9307 27.0714 38.4309C28.5717 39.9312 30.6065 40.7741 32.7282 40.7741C34.85 40.7741 36.8848 39.9312 38.3851 38.4309C39.8854 36.9307 40.7282 34.8958 40.7282 32.7741C40.7282 30.6524 39.8854 28.6175 38.3851 27.1172C36.8848 25.6169 34.85 24.7741 32.7282 24.7741Z" fill="#28222B"/>
</svg>
