<svg width="49" height="49" viewBox="0 0 49 49" fill="none" xmlns="http://www.w3.org/2000/svg">
<g clip-path="url(#clip0_45_87)">
<path d="M38.2813 30.625C36.1613 30.625 34.0889 29.9964 32.3262 28.8186C30.5635 27.6408 29.1897 25.9667 28.3784 24.0081C27.5671 22.0495 27.3549 19.8944 27.7685 17.8151C28.182 15.7359 29.2029 13.826 30.702 12.327C32.201 10.8279 34.1109 9.80705 36.1901 9.39346C38.2694 8.97988 40.4245 9.19214 42.3831 10.0034C44.3417 10.8147 46.0158 12.1885 47.1936 13.9512C48.3714 15.7139 49 17.7863 49 19.9063L49.049 21.4375C49.049 24.2527 48.4945 27.0404 47.4172 29.6413C46.3398 32.2422 44.7608 34.6055 42.7701 36.5961C40.7794 38.5868 38.4162 40.1658 35.8153 41.2432C33.2144 42.3205 30.4267 42.875 27.6115 42.875V36.75C29.6233 36.7554 31.6161 36.362 33.4749 35.5924C35.3336 34.8228 37.0214 33.6924 38.4405 32.2665C38.9921 31.716 39.5009 31.1242 39.9626 30.4964C39.4064 30.5838 38.8443 30.6278 38.2813 30.6281V30.625ZM10.7187 30.625C8.59878 30.625 6.52642 29.9964 4.76373 28.8186C3.00104 27.6408 1.62719 25.9667 0.815914 24.0081C0.00463672 22.0495 -0.20763 19.8944 0.205955 17.8151C0.61954 15.7359 1.6404 13.826 3.13945 12.327C4.63849 10.8279 6.54839 9.80705 8.62762 9.39346C10.7069 8.97988 12.862 9.19214 14.8206 10.0034C16.7792 10.8147 18.4533 12.1885 19.6311 13.9512C20.8089 15.7139 21.4375 17.7863 21.4375 19.9063L21.4865 21.4375C21.4865 27.1231 19.2279 32.5758 15.2076 36.5961C11.1873 40.6164 5.73458 42.875 0.0489972 42.875V36.75C2.06075 36.7554 4.05361 36.362 5.91236 35.5924C7.7711 34.8228 9.45885 33.6924 10.878 32.2665C11.4296 31.716 11.9384 31.1242 12.4001 30.4964C11.8439 30.5838 11.2818 30.6278 10.7187 30.6281V30.625Z" fill="white" fill-opacity="0.76"/>
</g>
<defs>
<clipPath id="clip0_45_87">
<rect width="49" height="49" fill="white"/>
</clipPath>
</defs>
</svg>
