<svg width="35" height="35" viewBox="0 0 35 35" fill="none" xmlns="http://www.w3.org/2000/svg">
<path d="M17.5 5.83337C19.0471 5.83337 20.5308 6.44796 21.6248 7.54192C22.7188 8.63588 23.3333 10.1196 23.3333 11.6667C23.3333 13.2138 22.7188 14.6975 21.6248 15.7915C20.5308 16.8855 19.0471 17.5 17.5 17.5C15.9529 17.5 14.4692 16.8855 13.3752 15.7915C12.2813 14.6975 11.6667 13.2138 11.6667 11.6667C11.6667 10.1196 12.2813 8.63588 13.3752 7.54192C14.4692 6.44796 15.9529 5.83337 17.5 5.83337ZM17.5 20.4167C23.9458 20.4167 29.1667 23.0271 29.1667 26.25V29.1667H5.83334V26.25C5.83334 23.0271 11.0542 20.4167 17.5 20.4167Z" fill="black"/>
</svg>
