<svg width="64" height="65" viewBox="0 0 64 65" fill="none" xmlns="http://www.w3.org/2000/svg">
<path d="M50.8 13.8153C48.3552 11.3458 45.4432 9.38778 42.2337 8.05547C39.0243 6.72316 35.5817 6.04323 32.1067 6.05533C17.5467 6.05533 5.68001 17.922 5.68001 32.482C5.68001 37.1487 6.90668 41.682 9.20001 45.682L5.46667 59.3887L19.4667 55.7087C23.3333 57.8153 27.68 58.9353 32.1067 58.9353C46.6667 58.9353 58.5333 47.0687 58.5333 32.5087C58.5333 25.442 55.7867 18.802 50.8 13.8153ZM32.1067 54.4553C28.16 54.4553 24.2933 53.3887 20.9067 51.3887L20.1067 50.9087L11.7867 53.0953L14 44.9887L13.4667 44.162C11.274 40.6606 10.1097 36.6133 10.1067 32.482C10.1067 20.3753 19.9733 10.5087 32.08 10.5087C37.9467 10.5087 43.4667 12.802 47.6 16.962C49.6466 18.9992 51.2685 21.4224 52.3717 24.0911C53.4749 26.7598 54.0374 29.621 54.0267 32.5087C54.08 44.6153 44.2133 54.4553 32.1067 54.4553ZM44.16 38.0287C43.4933 37.7087 40.24 36.1087 39.6533 35.8687C39.04 35.6553 38.6133 35.5487 38.16 36.1887C37.7067 36.8553 36.4533 38.3487 36.08 38.7753C35.7067 39.2287 35.3067 39.282 34.64 38.9353C33.9733 38.6153 31.84 37.8953 29.3333 35.6553C27.36 33.8953 26.0533 31.7353 25.6533 31.0687C25.28 30.402 25.6 30.0553 25.9467 29.7087C26.24 29.4153 26.6133 28.9353 26.9333 28.562C27.2533 28.1887 27.3867 27.8953 27.6 27.4687C27.8133 27.0153 27.7067 26.642 27.5467 26.322C27.3867 26.002 26.0533 22.7487 25.52 21.4153C24.9867 20.1353 24.4267 20.2953 24.0267 20.2687H22.7467C22.2933 20.2687 21.6 20.4287 20.9867 21.0953C20.4 21.762 18.6933 23.362 18.6933 26.6153C18.6933 29.8687 21.0667 33.0153 21.3867 33.442C21.7067 33.8953 26.0533 40.562 32.6667 43.4153C34.24 44.1087 35.4667 44.5087 36.4267 44.802C38 45.3087 39.44 45.2287 40.5867 45.0687C41.8667 44.882 44.5067 43.4687 45.04 41.922C45.6 40.3753 45.6 39.0687 45.4133 38.7753C45.2267 38.482 44.8267 38.3487 44.16 38.0287Z" fill="#28222B"/>
</svg>
