<svg width="64" height="64" viewBox="0 0 64 64" fill="none" xmlns="http://www.w3.org/2000/svg">
<path d="M26.6667 40.0002L40.5067 32.0002L26.6667 24.0002V40.0002ZM57.4933 19.1202C57.84 20.3735 58.08 22.0535 58.24 24.1868C58.4267 26.3202 58.5067 28.1602 58.5067 29.7602L58.6667 32.0002C58.6667 37.8402 58.24 42.1335 57.4933 44.8802C56.8267 47.2802 55.28 48.8268 52.88 49.4935C51.6267 49.8402 49.3333 50.0802 45.8133 50.2402C42.3467 50.4268 39.1733 50.5068 36.24 50.5068L32 50.6668C20.8267 50.6668 13.8667 50.2402 11.12 49.4935C8.72001 48.8268 7.17334 47.2802 6.50668 44.8802C6.16001 43.6268 5.92001 41.9468 5.76001 39.8135C5.57334 37.6802 5.49334 35.8402 5.49334 34.2402L5.33334 32.0002C5.33334 26.1602 5.76001 21.8668 6.50668 19.1202C7.17334 16.7202 8.72001 15.1735 11.12 14.5068C12.3733 14.1602 14.6667 13.9202 18.1867 13.7602C21.6533 13.5735 24.8267 13.4935 27.76 13.4935L32 13.3335C43.1733 13.3335 50.1333 13.7602 52.88 14.5068C55.28 15.1735 56.8267 16.7202 57.4933 19.1202Z" fill="#28222B"/>
</svg>
